# xmcd
# 
# Track frame offsets:
#     150
#     21926
#     55488
#     73607
#     97538
#     110149
#     132303
#     157156
#     180925
#     195941
#     241484
#     251497
#     267702
#     290967
#     312193
#     329928
# 
# Disc length: 4716
# 
# Revision: 3
# Processed by: cddbd v1.5.2PL0 Copyright (c) Steve Scherf et al.
# Submitted via: BonkEnc v1.0
# 
DISCID=f6126a10
DTITLE=B.B.KING - Collection 2000
DYEAR=0
DGENRE=
TTITLE0=When Love Comes To Town
TTITLE1=Sweet Sixteen
TTITLE2=Everyday I Have The Blues
TTITLE3=Blues For TJ With L.Carlton
TTITLE4=Please, Love Me
TTITLE5=No One Ever Tells You With D.Schuur
TTITLE6=Rock Me Baby With E.Clapton
TTITLE7=Stormy Monday Blues
TTITLE8=Better Not Lock Down
TTITLE9=B'B's Blues
TTITLE10=Don't Keep Me Waitin'
TTITLE11=Birthday Boogie
TTITLE12=let The Good Times Roll With Zucchero
TTITLE13=Freedom
TTITLE14=The Trill Is Gone With T.Chapman
TTITLE15=Playin' With My Friends
EXTD=
EXTT0=
EXTT1=
EXTT2=
EXTT3=
EXTT4=
EXTT5=
EXTT6=
EXTT7=
EXTT8=
EXTT9=
EXTT10=
EXTT11=
EXTT12=
EXTT13=
EXTT14=
EXTT15=
PLAYORDER=
